<?xml version="1.0" encoding="utf-8"?>
<!-- Generator: Adobe Illustrator 16.0.3, SVG Export Plug-In . SVG Version: 6.00 Build 0)  -->
<!DOCTYPE svg PUBLIC "-//W3C//DTD SVG 1.1//EN" "http://www.w3.org/Graphics/SVG/1.1/DTD/svg11.dtd">
<svg version="1.1" id="Layer_1" xmlns="http://www.w3.org/2000/svg" xmlns:xlink="http://www.w3.org/1999/xlink" x="0px" y="0px"
	 width="162px" height="144px" viewBox="0 0 162 144" enable-background="new 0 0 162 144" xml:space="preserve">
<g>
	<g>
		<rect x="54" y="45" fill="#ED1C24" width="54" height="9"/>
		<rect x="45" y="54" fill="#ED1C24" width="72" height="9"/>
		<rect x="36" y="63" fill="#ED1C24" width="90" height="63"/>
		<rect x="27" y="72" fill="#ED1C24" width="9" height="45"/>
		<rect x="45" y="126" fill="#ED1C24" width="72" height="9"/>
		<rect x="126" y="72" fill="#ED1C24" width="9" height="45"/>
		<rect x="54" y="135" fill="#ED1C24" width="54" height="9"/>
		<rect x="72" y="27" fill="#754C29" width="9" height="18"/>
		<rect x="81" y="18" fill="#754C29" width="9" height="27"/>
		<rect x="63" y="27" fill="#009444" width="9" height="9"/>
		<rect x="54" y="18" fill="#009444" width="27" height="9"/>
		<rect x="63" y="9" fill="#009444" width="18" height="9"/>
		<rect x="45" y="9" fill="#009444" width="18" height="9"/>
		<rect x="54" fill="#009444" width="18" height="9"/>
		<rect x="45" y="18" fill="#009444" width="9" height="9"/>
		<rect x="54" y="27" fill="#009444" width="9" height="9"/>
		<rect x="36" y="9" fill="#009444" width="9" height="9"/>
		<rect x="36" fill="#009444" width="18" height="9"/>
	</g>
	<g>
		<rect x="117" y="72" fill="#BE1E2D" width="18" height="45"/>
		<rect x="99" y="126" fill="#BE1E2D" width="18" height="9"/>
		<rect x="54" y="135" fill="#BE1E2D" width="54" height="9"/>
		<rect x="108" y="90" fill="#BE1E2D" width="18" height="36"/>
		<rect x="63" y="126" fill="#BE1E2D" width="36" height="9"/>
		<rect x="81" y="117" fill="#BE1E2D" width="27" height="9"/>
		<rect x="90" y="108" fill="#BE1E2D" width="18" height="9"/>
		<rect x="117" y="63" fill="#BE1E2D" width="9" height="9"/>
	</g>
	<rect x="81" y="18" fill="#603913" width="9" height="27"/>
	<rect x="54" y="27" fill="#006838" width="18" height="9"/>
	<rect x="54" y="18" fill="#006838" width="27" height="9"/>
	<rect x="63" y="9" fill="#006838" width="18" height="9"/>
</g>
</svg>
