<?xml version="1.0" encoding="utf-8"?>
<!-- Generator: Adobe Illustrator 16.0.3, SVG Export Plug-In . SVG Version: 6.00 Build 0)  -->
<!DOCTYPE svg PUBLIC "-//W3C//DTD SVG 1.1//EN" "http://www.w3.org/Graphics/SVG/1.1/DTD/svg11.dtd">
<svg version="1.1" id="Layer_1" xmlns="http://www.w3.org/2000/svg" xmlns:xlink="http://www.w3.org/1999/xlink" x="0px" y="0px"
	 width="135px" height="117px" viewBox="0 0 135 117" enable-background="new 0 0 135 117" xml:space="preserve">
<g>
	<g>
		<g>
			<rect x="9" y="36" fill="#F9ED32" width="18" height="9"/>
			<rect x="9" y="45" fill="#F9ED32" width="27" height="9"/>
			<rect x="18" y="54" fill="#F9ED32" width="27" height="9"/>
			<rect x="27" y="63" fill="#F9ED32" width="27" height="9"/>
			<rect x="36" y="72" fill="#F9ED32" width="27" height="9"/>
			<rect x="9" y="54" fill="#F9ED32" width="9" height="9"/>
			<rect x="18" y="63" fill="#F9ED32" width="9" height="9"/>
			<rect x="27" y="72" fill="#F9ED32" width="9" height="9"/>
			<rect x="36" y="81" fill="#F9ED32" width="36" height="9"/>
			<rect x="45" y="90" fill="#F9ED32" width="27" height="9"/>
			<rect x="54" y="99" fill="#F9ED32" width="18" height="9"/>
			<rect x="72" y="90" fill="#F9ED32" width="9" height="18"/>
			<rect x="9" y="63" fill="#F9ED32" width="9" height="9"/>
			<rect x="18" y="72" fill="#F9ED32" width="9" height="9"/>
			<rect x="27" y="81" fill="#F9ED32" width="9" height="9"/>
			<rect x="36" y="90" fill="#F9ED32" width="9" height="9"/>
			<rect x="45" y="99" fill="#F9ED32" width="9" height="9"/>
			<rect x="63" y="108" fill="#F9ED32" width="18" height="9"/>
			<rect x="81" y="90" fill="#F9ED32" width="9" height="18"/>
			<rect x="90" y="90" fill="#F9ED32" width="9" height="9"/>
		</g>
		<rect x="9" y="54" fill="#FFCB05" width="9" height="18"/>
		<rect x="18" y="63" fill="#FFCB05" width="9" height="18"/>
		<rect x="27" y="72" fill="#FFCB05" width="9" height="18"/>
		<rect x="36" y="81" fill="#FFCB05" width="9" height="18"/>
		<rect x="45" y="99" fill="#FFCB05" width="18" height="9"/>
		<rect x="45" y="90" fill="#FFCB05" width="9" height="9"/>
		<rect x="63" y="108" fill="#FFCB05" width="18" height="9"/>
		<rect x="63" y="99" fill="#FFCB05" width="9" height="9"/>
		<rect x="9" y="45" fill="#FFCB05" width="9" height="9"/>
		<rect x="18" y="54" fill="#FFCB05" width="9" height="9"/>
		<rect x="18" y="27" fill="#F9ED32" width="36" height="9"/>
		<rect x="27" y="36" fill="#F9ED32" width="27" height="9"/>
		<rect x="36" y="45" fill="#F9ED32" width="27" height="9"/>
		<rect x="45" y="54" fill="#F9ED32" width="27" height="9"/>
		<rect x="54" y="63" fill="#F9ED32" width="27" height="9"/>
		<rect x="63" y="72" fill="#F9ED32" width="27" height="9"/>
		<rect x="72" y="81" fill="#F9ED32" width="27" height="9"/>
		<rect x="27" y="18" fill="#F9ED32" width="27" height="9"/>
		<rect x="18" y="18" fill="#F9ED32" width="9" height="9"/>
		<rect x="99" y="81" fill="#F9ED32" width="9" height="9"/>
		<rect x="99" y="90" fill="#F9ED32" width="9" height="9"/>
		<rect x="108" y="81" fill="#F9ED32" width="9" height="9"/>
		<rect x="90" y="99" fill="#F9ED32" width="18" height="9"/>
		<rect x="108" y="90" fill="#F9ED32" width="9" height="9"/>
		<rect x="27" y="36" fill="#FFCB05" width="18" height="9"/>
		<rect x="36" y="45" fill="#FFCB05" width="9" height="9"/>
		<rect x="45" y="54" fill="#FFCB05" width="9" height="9"/>
		<rect x="54" y="63" fill="#FFCB05" width="9" height="9"/>
		<rect x="45" y="63" fill="#FFCB05" width="9" height="9"/>
		<rect x="54" y="72" fill="#FFCB05" width="18" height="9"/>
		<rect x="36" y="54" fill="#FFCB05" width="9" height="9"/>
		<rect x="63" y="81" fill="#FFCB05" width="18" height="9"/>
		<rect x="81" y="90" fill="#FFCB05" width="9" height="9"/>
		<rect x="90" y="99" fill="#FFCB05" width="18" height="9"/>
		<rect x="81" y="99" fill="#FFCB05" width="9" height="9"/>
		<rect x="72" y="90" fill="#FFCB05" width="9" height="9"/>
		<rect x="36" y="9" fill="#F9ED32" width="9" height="9"/>
		<rect x="54" y="18" fill="#F9ED32" width="9" height="27"/>
		<rect x="63" y="27" fill="#F9ED32" width="18" height="27"/>
		<rect x="72" y="45" fill="#F9ED32" width="27" height="27"/>
		<rect x="81" y="63" fill="#F9ED32" width="36" height="18"/>
		<rect x="90" y="54" fill="#F9ED32" width="27" height="9"/>
		<rect x="108" y="72" fill="#F9ED32" width="18" height="18"/>
		<rect x="108" y="63" fill="#F9ED32" width="18" height="9"/>
		<rect x="126" y="63" fill="#F9ED32" width="9" height="18"/>
		<rect x="36" y="18" fill="#FFCB05" width="18" height="9"/>
		<rect x="45" y="27" fill="#FFCB05" width="18" height="9"/>
		<rect x="54" y="36" fill="#FFCB05" width="9" height="9"/>
		<rect x="63" y="45" fill="#FFCB05" width="9" height="9"/>
		<rect x="72" y="54" fill="#FFCB05" width="9" height="9"/>
		<rect x="81" y="63" fill="#FFCB05" width="18" height="9"/>
		<rect x="90" y="72" fill="#FFCB05" width="18" height="9"/>
		<rect x="99" y="81" fill="#FFCB05" width="18" height="9"/>
	</g>
	<rect x="9" y="18" fill="#8B5E3C" width="18" height="18"/>
	<rect x="18" y="9" fill="#8B5E3C" width="18" height="18"/>
	<rect x="27" y="9" fill="#8B5E3C" width="18" height="9"/>
	<rect y="18" fill="#8B5E3C" width="9" height="18"/>
	<rect x="9" y="9" fill="#8B5E3C" width="9" height="9"/>
	<rect y="27" fill="#603913" width="27" height="9"/>
	<rect y="18" fill="#603913" width="9" height="9"/>
	<rect x="18" fill="#8B5E3C" width="18" height="9"/>
</g>
<rect id="_x3C_Slice_x3E_" fill="none" width="135" height="117"/>
</svg>
