<?xml version="1.0" encoding="utf-8"?>
<!-- Generator: Adobe Illustrator 16.0.3, SVG Export Plug-In . SVG Version: 6.00 Build 0)  -->
<!DOCTYPE svg PUBLIC "-//W3C//DTD SVG 1.1//EN" "http://www.w3.org/Graphics/SVG/1.1/DTD/svg11.dtd">
<svg version="1.1" id="Layer_1" xmlns="http://www.w3.org/2000/svg" xmlns:xlink="http://www.w3.org/1999/xlink" x="0px" y="0px"
	 width="90px" height="117px" viewBox="0 0 90 117" enable-background="new 0 0 90 117" xml:space="preserve">
<rect id="_x3C_Slice_x3E_" x="-23" fill="none" width="135" height="117"/>
<g>
	<rect x="9" y="72" fill="#ED1C24" width="27" height="9"/>
	<rect y="81" fill="#ED1C24" width="45" height="27"/>
	<rect x="9" y="108" fill="#ED1C24" width="27" height="9"/>
	<rect x="54" y="63" fill="#ED1C24" width="27" height="9"/>
	<rect x="45" y="72" fill="#ED1C24" width="45" height="27"/>
	<rect x="54" y="99" fill="#ED1C24" width="27" height="9"/>
	<rect x="63" y="36" fill="#A97C50" width="9" height="27"/>
	<rect x="18" y="63" fill="#A97C50" width="9" height="9"/>
	<rect x="27" y="54" fill="#A97C50" width="9" height="9"/>
	<rect x="36" y="45" fill="#A97C50" width="9" height="9"/>
	<rect x="45" y="27" fill="#A97C50" width="9" height="18"/>
	<rect x="72" fill="#754C29" width="9" height="36"/>
	<rect x="54" y="18" fill="#A97C50" width="9" height="9"/>
	<rect x="63" y="9" fill="#A97C50" width="9" height="9"/>
	<rect x="54" fill="#A97C50" width="18" height="9"/>
	<rect x="36" y="90" fill="#BE1E2D" width="9" height="18"/>
	<rect x="9" y="108" fill="#BE1E2D" width="27" height="9"/>
	<rect x="18" y="99" fill="#BE1E2D" width="18" height="9"/>
	<rect x="54" y="99" fill="#BE1E2D" width="27" height="9"/>
	<rect x="63" y="90" fill="#BE1E2D" width="27" height="9"/>
	<rect x="9" y="81" fill="#FFFFFF" width="9" height="9"/>
	<rect x="54" y="72" fill="#FFFFFF" width="9" height="9"/>
</g>
<rect id="_x3C_Slice_x3E__1_" fill="none" width="90" height="117"/>
</svg>
