<?xml version="1.0" encoding="utf-8"?>
<!-- Generator: Adobe Illustrator 16.0.3, SVG Export Plug-In . SVG Version: 6.00 Build 0)  -->
<!DOCTYPE svg PUBLIC "-//W3C//DTD SVG 1.1//EN" "http://www.w3.org/Graphics/SVG/1.1/DTD/svg11.dtd">
<svg version="1.1" id="Layer_1" xmlns="http://www.w3.org/2000/svg" xmlns:xlink="http://www.w3.org/1999/xlink" x="0px" y="0px"
	 width="162px" height="144px" viewBox="0 0 162 144" enable-background="new 0 0 162 144" xml:space="preserve">
<rect id="_x3C_Slice_x3E_" fill="none" width="162" height="144"/>
<g>
	<g>
		<rect x="36" y="18" fill="#E6E7E8" width="9" height="9"/>
		<rect x="99" y="27" fill="#E6E7E8" width="0" height="0"/>
		<rect x="36" y="27" fill="#E6E7E8" width="9" height="36"/>
		<rect x="45" y="63" fill="#E6E7E8" width="9" height="18"/>
		<rect x="54" y="81" fill="#E6E7E8" width="9" height="9"/>
		<rect x="63" y="90" fill="#E6E7E8" width="9" height="9"/>
		<rect x="72" y="99" fill="#E6E7E8" width="9" height="27"/>
		<rect x="63" y="126" fill="#E6E7E8" width="18" height="9"/>
		<rect x="54" y="135" fill="#E6E7E8" width="18" height="9"/>
		<polyline fill="#E6E7E8" points="36,27 27,27 27,36 36,36 		"/>
		<rect x="18" y="18" fill="#E6E7E8" width="9" height="9"/>
		<rect x="9" y="45" fill="#E6E7E8" width="9" height="9"/>
		<rect x="27" y="63" fill="#E6E7E8" width="9" height="9"/>
		<polyline fill="#E6E7E8" points="27,63 27,54 18,54 18,63 		"/>
		<rect y="36" fill="#E6E7E8" width="9" height="9"/>
		<rect x="9" y="18" fill="#E6E7E8" width="9" height="9"/>
		<rect y="27" fill="#E6E7E8" width="9" height="9"/>
		<rect x="9" y="27" fill="#E6E7E8" width="9" height="18"/>
		<rect x="36" y="63" fill="#E6E7E8" width="9" height="9"/>
	</g>
	<g>
		<rect x="108" y="18" fill="#BCBEC0" width="18" height="9"/>
		<rect x="63" y="36" fill="#BCBEC0" width="36" height="9"/>
		<rect x="99" y="27" fill="#BCBEC0" width="18" height="9"/>
		<rect x="99" y="9" fill="#BCBEC0" width="18" height="9"/>
		<rect x="117" y="27" fill="#BCBEC0" width="9" height="36"/>
		<rect x="108" y="63" fill="#BCBEC0" width="9" height="18"/>
		<rect x="99" y="81" fill="#BCBEC0" width="9" height="9"/>
		<rect x="90" y="90" fill="#BCBEC0" width="9" height="9"/>
		<rect x="81" y="99" fill="#BCBEC0" width="9" height="27"/>
		<rect x="126" y="27" fill="#BCBEC0" width="9" height="9"/>
		<rect x="135" y="18" fill="#BCBEC0" width="9" height="9"/>
		<rect x="144" y="45" fill="#BCBEC0" width="9" height="9"/>
		<rect x="126" y="63" fill="#BCBEC0" width="9" height="9"/>
		<rect x="135" y="54" fill="#BCBEC0" width="9" height="9"/>
		<rect x="153" y="36" fill="#BCBEC0" width="9" height="9"/>
		<rect x="144" y="18" fill="#BCBEC0" width="9" height="9"/>
		<rect x="153" y="27" fill="#BCBEC0" width="9" height="9"/>
		<rect x="144" y="27" fill="#BCBEC0" width="9" height="18"/>
		<rect x="117" y="63" fill="#BCBEC0" width="9" height="9"/>
		<rect x="99" y="36" fill="#BCBEC0" width="18" height="9"/>
		<rect x="63" y="45" fill="#BCBEC0" width="54" height="18"/>
		<rect x="72" y="63" fill="#BCBEC0" width="36" height="18"/>
		<rect x="81" y="81" fill="#BCBEC0" width="18" height="9"/>
		<rect x="81" y="90" fill="#BCBEC0" width="9" height="9"/>
		<rect x="81" y="126" fill="#BCBEC0" width="18" height="9"/>
		<rect x="72" y="135" fill="#BCBEC0" width="36" height="9"/>
	</g>
	<g>
		<rect x="45" y="9" fill="#D1D3D4" width="18" height="9"/>
		<rect x="45" y="27" fill="#D1D3D4" width="18" height="9"/>
		<rect x="63" fill="#D1D3D4" width="36" height="9"/>
		<rect x="45" y="36" fill="#D1D3D4" width="18" height="27"/>
		<rect x="54" y="63" fill="#D1D3D4" width="18" height="18"/>
		<rect x="63" y="81" fill="#D1D3D4" width="18" height="9"/>
		<rect x="72" y="90" fill="#D1D3D4" width="9" height="9"/>
		<rect x="45" y="18" fill="#D1D3D4" width="9" height="9"/>
	</g>
	<g>
		<rect x="63" y="9" fill="#A7A9AC" width="36" height="9"/>
		<rect x="54" y="18" fill="#A7A9AC" width="54" height="9"/>
		<rect x="63" y="27" fill="#A7A9AC" width="36" height="9"/>
	</g>
	<g>
		<rect x="63" y="45" fill="#6D6E71" width="9" height="9"/>
		<rect x="72" y="36" fill="#6D6E71" width="18" height="9"/>
		<rect x="90" y="45" fill="#6D6E71" width="9" height="9"/>
		<rect x="81" y="54" fill="#6D6E71" width="9" height="9"/>
		<rect x="72" y="63" fill="#6D6E71" width="9" height="9"/>
		<rect x="63" y="81" fill="#6D6E71" width="36" height="9"/>
		<rect x="63" y="72" fill="#6D6E71" width="9" height="9"/>
	</g>
</g>
</svg>
